<svg width="16" height="16" viewBox="0 0 16 16" fill="none" xmlns="http://www.w3.org/2000/svg">
<path d="M3.38107 5.33342C3.87286 4.48161 4.59063 3.78238 5.45503 3.31306C6.31942 2.84373 7.29676 2.62258 8.279 2.67406C9.26123 2.72554 10.2101 3.04763 11.0207 3.60474C11.8313 4.16185 12.4721 4.93227 12.8721 5.83082M2.15442 3.67699L2.64069 5.78335C2.72352 6.1421 3.08148 6.36579 3.44024 6.28297L5.5466 5.79669M12.6187 10.6667C12.1269 11.5185 11.4091 12.2177 10.5447 12.687C9.68035 13.1564 8.70301 13.3775 7.72077 13.326C6.73854 13.2746 5.78966 12.9525 4.97907 12.3953C4.16847 11.8382 3.52772 11.0678 3.12766 10.1693M13.8454 12.3231L13.3591 10.2167C13.2763 9.85799 12.9183 9.6343 12.5595 9.71712L10.4532 10.2034" stroke="#44110D" stroke-linecap="round"/>
</svg>
